<?xml version="1.0" encoding="UTF-8"?>
<svg width="64" height="64" version="1.1" viewBox="0 0 16.933 16.933" xmlns="http://www.w3.org/2000/svg">
 <defs>
  <style>
   .cls-1 { fill: currentColor; }
  </style>
 </defs>
 <g transform="translate(0 -280.07)">
  <!-- Клавиатура -->
  <rect class="cls-1" x="1.5" y="284.07" width="13.933" height="9" rx="1" ry="1" 
        style="fill:none;stroke:currentColor;stroke-width:0.8"/>
  
  <!-- Клавиши (верхний ряд) -->
  <rect class="cls-1" x="2.5" y="285.5" width="1.5" height="1.2" rx="0.2"/>
  <rect class="cls-1" x="4.2" y="285.5" width="1.5" height="1.2" rx="0.2"/>
  <rect class="cls-1" x="5.9" y="285.5" width="1.5" height="1.2" rx="0.2"/>
  <rect class="cls-1" x="7.6" y="285.5" width="1.5" height="1.2" rx="0.2"/>
  <rect class="cls-1" x="9.3" y="285.5" width="1.5" height="1.2" rx="0.2"/>
  <rect class="cls-1" x="11" y="285.5" width="1.5" height="1.2" rx="0.2"/>
  <rect class="cls-1" x="12.7" y="285.5" width="1.5" height="1.2" rx="0.2"/>
  
  <!-- Клавиши (средний ряд) -->
  <rect class="cls-1" x="2.5" y="287.2" width="1.5" height="1.2" rx="0.2"/>
  <rect class="cls-1" x="4.2" y="287.2" width="1.5" height="1.2" rx="0.2"/>
  <rect class="cls-1" x="5.9" y="287.2" width="1.5" height="1.2" rx="0.2"/>
  <rect class="cls-1" x="7.6" y="287.2" width="1.5" height="1.2" rx="0.2"/>
  <rect class="cls-1" x="9.3" y="287.2" width="1.5" height="1.2" rx="0.2"/>
  <rect class="cls-1" x="11" y="287.2" width="1.5" height="1.2" rx="0.2"/>
  <rect class="cls-1" x="12.7" y="287.2" width="1.5" height="1.2" rx="0.2"/>
  
  <!-- Клавиши (нижний ряд) -->
  <rect class="cls-1" x="2.5" y="288.9" width="1.5" height="1.2" rx="0.2"/>
  <rect class="cls-1" x="4.2" y="288.9" width="1.5" height="1.2" rx="0.2"/>
  <rect class="cls-1" x="5.9" y="288.9" width="1.5" height="1.2" rx="0.2"/>
  <rect class="cls-1" x="7.6" y="288.9" width="1.5" height="1.2" rx="0.2"/>
  <rect class="cls-1" x="9.3" y="288.9" width="1.5" height="1.2" rx="0.2"/>
  <rect class="cls-1" x="11" y="288.9" width="1.5" height="1.2" rx="0.2"/>
  <rect class="cls-1" x="12.7" y="288.9" width="1.5" height="1.2" rx="0.2"/>
  
  <!-- Пробел -->
  <rect class="cls-1" x="4.5" y="290.6" width="7.9" height="1.2" rx="0.2"/>
  
  <!-- Символы переключения (Ru/En) -->
  <text x="3.5" y="283" style="font-size:2.5px;font-weight:bold;fill:currentColor;font-family:sans-serif">Ru</text>
  <text x="10.5" y="283" style="font-size:2.5px;font-weight:bold;fill:currentColor;font-family:sans-serif">En</text>
  
  <!-- Стрелки переключения -->
  <path class="cls-1" d="m 7.5,281.8 1,-0.8 1,0.8" style="fill:none;stroke:currentColor;stroke-width:0.4;stroke-linecap:round;stroke-linejoin:round"/>
  <path class="cls-1" d="m 7.5,282.5 1,0.8 1,-0.8" style="fill:none;stroke:currentColor;stroke-width:0.4;stroke-linecap:round;stroke-linejoin:round"/>
 </g>
</svg>
