<?xml version="1.0" encoding="UTF-8"?>
<svg width="64" height="64" version="1.1" viewBox="0 0 64 64" xmlns="http://www.w3.org/2000/svg">
  <defs>
    <linearGradient id="keyboardGradient" x1="0%" y1="0%" x2="0%" y2="100%">
      <stop offset="0%" style="stop-color:#4a90e2;stop-opacity:1" />
      <stop offset="100%" style="stop-color:#357abd;stop-opacity:1" />
    </linearGradient>
  </defs>
  
  <!-- Фон круга -->
  <circle cx="32" cy="32" r="30" style="fill:#2d3748;opacity:0.1"/>
  
  <!-- Клавиатура -->
  <rect x="14" y="24" width="36" height="24" rx="2" ry="2" 
        style="fill:url(#keyboardGradient);stroke:#2c5282;stroke-width:1.5"/>
  
  <!-- Клавиши (верхний ряд) -->
  <rect x="17" y="27" width="4" height="4" rx="0.5" style="fill:#e8f4f8"/>
  <rect x="22" y="27" width="4" height="4" rx="0.5" style="fill:#e8f4f8"/>
  <rect x="27" y="27" width="4" height="4" rx="0.5" style="fill:#e8f4f8"/>
  <rect x="32" y="27" width="4" height="4" rx="0.5" style="fill:#e8f4f8"/>
  <rect x="37" y="27" width="4" height="4" rx="0.5" style="fill:#e8f4f8"/>
  <rect x="42" y="27" width="4" height="4" rx="0.5" style="fill:#e8f4f8"/>
  
  <!-- Клавиши (средний ряд) -->
  <rect x="17" y="32.5" width="4" height="4" rx="0.5" style="fill:#e8f4f8"/>
  <rect x="22" y="32.5" width="4" height="4" rx="0.5" style="fill:#e8f4f8"/>
  <rect x="27" y="32.5" width="4" height="4" rx="0.5" style="fill:#e8f4f8"/>
  <rect x="32" y="32.5" width="4" height="4" rx="0.5" style="fill:#e8f4f8"/>
  <rect x="37" y="32.5" width="4" height="4" rx="0.5" style="fill:#e8f4f8"/>
  <rect x="42" y="32.5" width="4" height="4" rx="0.5" style="fill:#e8f4f8"/>
  
  <!-- Пробел -->
  <rect x="22" y="38" width="20" height="4" rx="0.5" style="fill:#e8f4f8"/>
  
  <!-- Стрелки переключения (RU ⇄ EN) -->
  <g transform="translate(32, 54)">
    <!-- RU -->
    <text x="-14" y="0" font-family="Arial,sans-serif" font-size="7" font-weight="bold" 
          fill="#48bb78" text-anchor="middle">RU</text>
    
    <!-- Двойная стрелка -->
    <path d="M -4,-1 L 0,-3 L 0,-2 L 4,-2 L 4,2 L 0,2 L 0,3 Z" 
          fill="#48bb78" opacity="0.8"/>
    
    <!-- EN -->
    <text x="14" y="0" font-family="Arial,sans-serif" font-size="7" font-weight="bold" 
          fill="#4299e1" text-anchor="middle">EN</text>
  </g>
</svg>
